<?xml version="1.0" standalone="no"?><!DOCTYPE svg PUBLIC "-//W3C//DTD SVG 1.1//EN" "http://www.w3.org/Graphics/SVG/1.1/DTD/svg11.dtd"><svg t="1663071796327" class="icon" viewBox="0 0 1178 1024" version="1.1" xmlns="http://www.w3.org/2000/svg" p-id="13868" xmlns:xlink="http://www.w3.org/1999/xlink" width="230.078125" height="200"><path d="M366.031698 765.874717h135.245283l-115.924528-115.924528-145.987623 154.566037h126.666868zM771.767547 649.950189h91.773585l-91.773585-115.924529-154.566038 154.566038h154.566038z" fill="#FFFFFF" p-id="13869"></path><path d="M1138.861887 997.723774l-275.320755-347.773585h-91.773585v38.641509h-154.566038l-96.603773 96.603774-77.283019 77.283019 77.283019-77.283019-19.320755-19.320755h-135.245283v38.641509h-126.666868l-182.465207 193.207548z" fill="#3EBBDD" p-id="13870"></path><path d="M1154.009358 985.744906l-275.320754-347.773585-91.773585-115.924529a19.320755 19.320755 0 0 0-28.826566-1.661584l-154.566038 154.566037-82.944 82.944-5.660981-5.660981-115.924528-115.924528a20.170868 20.170868 0 0 0-13.930264-5.660981c-5.216604 0.077283-10.182038 2.260528-13.775699 6.047396l-145.987622 154.566038-182.465208 193.207547a19.340075 19.340075 0 0 0 14.046189 32.594113h1081.962264a19.320755 19.320755 0 0 0 15.166792-31.318943zM770.086642 563.026113l53.51849 67.603321h-51.837585a19.320755 19.320755 0 0 0-19.320755 19.320755v19.320754h-88.604981l106.244831-106.24483z m-384.347774 114.649359l68.87849 68.87849h-88.604981a19.320755 19.320755 0 0 0-19.320754 19.320755v19.320755h-62.521963l101.569208-107.52z m-284.015094 300.746868l145.987622-154.566038h118.339623a19.320755 19.320755 0 0 0 19.320755-19.320755v-19.320755h107.925735l-63.623245 63.623246a19.262792 19.262792 0 0 0 0 27.319547 19.301434 19.301434 0 0 0 27.319547 0l168.225812-168.225811h146.567245a19.320755 19.320755 0 0 0 19.320755-19.320755v-19.320755h63.101585l244.736 309.132076H101.723774zM1022.937358 321.497358h-57.962264a19.320755 19.320755 0 0 1 0-38.641509h38.64151v-19.320755a19.320755 19.320755 0 0 1 19.320754-19.320754h57.962265a19.320755 19.320755 0 0 1 0 38.641509h-38.64151v19.320755a19.320755 19.320755 0 0 1-19.320755 19.320754zM250.10717 514.704906h-57.962264a19.320755 19.320755 0 0 1-19.320755-19.320755v-19.320755h-38.641509a19.320755 19.320755 0 0 1 0-38.641509h57.962264a19.320755 19.320755 0 0 1 19.320754 19.320755v19.320754h38.64151a19.320755 19.320755 0 0 1 0 38.64151zM1061.578868 534.02566h-57.962264a19.320755 19.320755 0 0 1-19.320755-19.320754v-19.320755h-38.641509a19.320755 19.320755 0 0 1 0-38.641509h57.962264a19.320755 19.320755 0 0 1 19.320754 19.320754v19.320755h38.64151a19.320755 19.320755 0 0 1 0 38.641509z" fill="#000000" p-id="13871"></path><path d="M18.258113 978.403019h1159.245283v38.641509h-1159.245283z" fill="#000000" p-id="13872"></path><path d="M520.597736 147.610566m-115.924528 0a115.924528 115.924528 0 1 0 231.849056 0 115.924528 115.924528 0 1 0-231.849056 0Z" fill="#FF8000" p-id="13873"></path><path d="M520.597736 282.855849c-74.578113 0-135.245283-60.66717-135.245283-135.245283s60.66717-135.245283 135.245283-135.245283 135.245283 60.66717 135.245283 135.245283-60.66717 135.245283-135.245283 135.245283z m0-231.849057c-53.267321 0-96.603774 43.336453-96.603774 96.603774s43.336453 96.603774 96.603774 96.603774 96.603774-43.336453 96.603773-96.603774-43.336453-96.603774-96.603773-96.603774z" fill="#000000" p-id="13874"></path><path d="M501.276981 630.629434h38.64151v38.641509h-38.64151zM501.276981 553.346415h38.64151v38.64151h-38.64151zM501.276981 476.063396h38.64151v38.64151h-38.64151z" fill="#000000" p-id="13875"></path><path d="M462.635472 418.101132h115.924528l-57.962264-77.283019z" fill="#4D4D4D" p-id="13876"></path><path d="M578.56 437.421887h-115.924528a19.340075 19.340075 0 0 1-15.456604-30.913208l57.962264-77.283019c7.283925-9.73766 23.629283-9.73766 30.913208 0l57.962264 77.283019a19.301434 19.301434 0 0 1-15.456604 30.913208z m-77.283019-38.64151h38.64151l-19.320755-25.754566-19.320755 25.754566zM713.805283 398.780377h38.641509v38.64151h-38.641509zM868.371321 89.648302h38.641509v38.641509h-38.641509zM134.182642 630.629434h38.641509v38.641509h-38.641509zM250.10717 244.21434h38.641509v38.641509h-38.641509z" fill="#000000" p-id="13877"></path></svg>